<svg id="Layer_1" data-name="Layer 1" xmlns="http://www.w3.org/2000/svg" viewBox="0 0 407.62 256.66"><defs><style>.cls-1{fill:#2f763a;}</style></defs><title>leaf_right</title><path class="cls-1" d="M78.22,444.28S92,467.42,97.92,477.66c0,0,12.18,20.79,15.83,21.27,0,0,5.72,19.58,30,26.3,0,0,26.84,22.16,38.18,16.83,0,0,33.08,11.74,35.79,8.77,0,0,2.12,7.77,17.85.13,0,0,11.15,3.45,36.77-3.93,0,0,25.35,7.91,31.07-8.49,0,0-5.35-.58,21.83-10.42,0,0,26.16-6.78,21.16-19,0,0,21.35,3.44,24-8.6,0,0-3.25-7.83,13.51-13.71,0,0,33.64-24.22,30.49-28.93,0,0,28.21-18.29,29-22.78,0,0,4.39-7.69,16.3-13,0,0,14.44-4.87,13.26-9.19,0,0-9,3.76-12.92,3,0,0-21.08-3.14-24-2.17,0,0-11.19,2.5-31.31-18.16,0,0-40.62-41.51-72.71-44.46,0,0,3.18-22.72-30-31.12,0,0,2.52-8.7-3.43-8.74,0,0-21.27.25-23.59,1.25,0,0-5.85,8.46-11.37-9.69,0,0-12.81-4.1-21.21-.88,0,0-55.54-10.42-70.91,1.2,0,0-33.67,24.79-37.62,24.57,0,0-11.15,12.14-19.45,13.67,0,0-13.73,7.46-31.66,45,0,0-14.34,17.07-17.37,27.38C65.44,413.82,76.83,438.53,78.22,444.28Zm298.24-9.13c15.19-1.41,24.76-2.89,28.37-3.5l1.66-.29-1.66.29c-8.65,1.51-18.19,2.66-28.37,3.5-44.68,4.14-138,7.59-271.72-13.86C104.74,421.28,273.79,443.67,376.46,435.14Z" transform="translate(-65.44 -297.68)"/></svg>