<?xml version="1.0" encoding="utf-8"?>
<!-- Generator: Adobe Illustrator 21.1.0, SVG Export Plug-In . SVG Version: 6.00 Build 0)  -->
<svg version="1.1" id="Layer_1" xmlns="http://www.w3.org/2000/svg" xmlns:xlink="http://www.w3.org/1999/xlink" x="0px" y="0px"
	 viewBox="0 0 407.6 256.7" style="enable-background:new 0 0 407.6 256.7;" xml:space="preserve">
<style type="text/css">
	.st0{fill:#5DB22B;}
</style>
<title>leaf_left</title>
<path class="st0" d="M394.8,110.1c0,0-13.8-23.1-19.7-33.4c0,0-12.2-20.8-15.8-21.3c0,0-5.7-19.6-30-26.3c0,0-26.8-22.2-38.2-16.8
	c0,0-33.1-11.7-35.8-8.8c0,0-2.1-7.8-17.9-0.1c0,0-11.1-3.5-36.8,3.9c0,0-25.4-7.9-31.1,8.5c0,0,5.4,0.6-21.8,10.4
	c0,0-26.2,6.8-21.2,19c0,0-21.4-3.4-24,8.6c0,0,3.2,7.8-13.5,13.7c0,0-33.6,24.2-30.5,28.9c0,0-28.2,18.3-29,22.8
	c0,0-4.4,7.7-16.3,13c0,0-14.4,4.9-13.3,9.2c0,0,9-3.8,12.9-3c0,0,21.1,3.1,24,2.2c0,0,11.2-2.5,31.3,18.2c0,0,40.6,41.5,72.7,44.5
	c0,0-3.2,22.7,30,31.1c0,0-2.5,8.7,3.4,8.7c0,0,21.3-0.2,23.6-1.2c0,0,5.9-8.5,11.4,9.7c0,0,12.8,4.1,21.2,0.9
	c0,0,55.5,10.4,70.9-1.2c0,0,33.7-24.8,37.6-24.6c0,0,11.1-12.1,19.5-13.7c0,0,13.7-7.5,31.7-45c0,0,14.3-17.1,17.4-27.4
	C407.6,140.5,396.2,115.8,394.8,110.1z M96.6,119.2c-15.2,1.4-24.8,2.9-28.4,3.5l-1.7,0.3l1.7-0.3C76.8,121.2,86.4,120,96.6,119.2
	c44.7-4.1,138-7.6,271.7,13.9C368.3,133.1,199.3,110.7,96.6,119.2z"/>
</svg>
